<svg xmlns="http://www.w3.org/2000/svg" xmlns:xlink="http://www.w3.org/1999/xlink" width="400" zoomAndPan="magnify" viewBox="0 0 300 299.999988" height="400" preserveAspectRatio="xMidYMid meet" version="1.0"><path fill="#7f7f7f" d="M 167.457031 92.511719 C 164.34375 90.863281 167.648438 85.617188 166.65625 79.78125 C 158.628906 68.585938 156.824219 66.640625 161 65.324219 C 164.863281 64.722656 167.996094 67.195312 174.132812 79.957031 C 178.554688 92.457031 170.136719 92.074219 167.457031 92.511719 Z M 167.457031 92.511719 " fill-opacity="1" fill-rule="nonzero"/><path fill="#fcf5fd" d="M 159.527344 136.757812 C 184.335938 118.660156 229.117188 136.511719 258.429688 143.921875 C 274.542969 152.597656 268.8125 130.214844 270.722656 141.734375 C 272.398438 150.238281 273.832031 150.957031 239.308594 146.875 C 235.792969 154.613281 178.234375 129.105469 141.519531 162.769531 C 109.671875 182.199219 148.667969 142.046875 159.527344 136.757812 Z M 159.527344 136.757812 " fill-opacity="1" fill-rule="nonzero"/><path fill="#5c729b" d="M 164.488281 92.15625 C 169.152344 90.230469 170.335938 86.4375 170.246094 81.074219 C 169.875 73.820312 157.886719 70.046875 160.207031 66.050781 C 173.917969 62.480469 189.558594 83.886719 186.515625 91.128906 C 190.339844 91.277344 195.289062 89.746094 200.746094 90.890625 C 236.527344 90.890625 259.3125 114.4375 265.847656 129.625 C 267.441406 132.601562 271.25 135.417969 271.589844 151.132812 C 274.785156 154.128906 280.222656 160.332031 281.480469 166.054688 C 285.414062 171.210938 267.601562 172.730469 261.339844 164.085938 C 253 158.535156 235.15625 153.054688 226.417969 152.539062 C 219.285156 151.128906 219.667969 153.714844 213.539062 152.304688 C 207.789062 155.480469 202.042969 158.652344 196.296875 161.824219 C 193.996094 162.882812 191.695312 163.9375 189.398438 164.996094 C 184.035156 165.347656 178.667969 165.703125 173.304688 166.054688 C 177.902344 163.585938 182.5 161.117188 187.097656 158.652344 L 189.398438 158.652344 C 191.121094 156.535156 195.121094 148.039062 196.84375 145.921875 C 181.46875 146.363281 169.59375 150.230469 159.542969 153.65625 C 151.617188 156.410156 133.886719 163.589844 126.609375 170.359375 C 84.144531 210.511719 61.609375 204.425781 61.449219 206.925781 C 61.382812 211.285156 37.703125 237.214844 34.03125 234.535156 C 30.363281 231.851562 37.210938 218.34375 36.394531 211.179688 C 35.917969 206.878906 30.085938 208.152344 32.011719 203.660156 C 33.101562 201.230469 26.570312 197.183594 22.796875 195.808594 C 17.207031 193.972656 14.859375 193.121094 23.242188 191.820312 C 31.863281 190.683594 52.113281 200.199219 59.234375 193.734375 C 110.363281 146.703125 78.566406 128.796875 164.488281 92.15625 Z M 164.488281 92.15625 " fill-opacity="1" fill-rule="nonzero"/><path fill="#cdcbd4" d="M 171.996094 134.183594 C 214.601562 128.746094 221.882812 137.296875 231.414062 140.851562 C 242.097656 141.863281 251.746094 150.011719 269.191406 147.78125 C 271.929688 142.921875 271.964844 147.921875 270.402344 149.421875 C 268.082031 150.570312 264.011719 151.222656 240.398438 147.625 C 224.164062 149.574219 244.035156 153.847656 249.914062 155.585938 C 257.917969 158.285156 262.585938 168.253906 271.476562 169.007812 C 279.203125 169.175781 285.292969 165.308594 280.6875 169.765625 C 273.160156 176.722656 257.210938 161.53125 253.5625 160.660156 C 250.742188 160.027344 246.859375 160.441406 241.699219 159.125 C 232.335938 157.429688 224.839844 155.128906 213.535156 152.835938 C 208.554688 152.570312 191.203125 150.296875 181.59375 151.789062 C 171.691406 152.75 157.417969 156.476562 145.226562 161.953125 C 110.574219 178.089844 152.144531 136.300781 171.996094 134.183594 Z M 171.996094 134.183594 " fill-opacity="1" fill-rule="nonzero"/><path fill="#5c749c" d="M 225.34375 155.832031 C 229.367188 156.535156 236.542969 158.136719 240.566406 158.84375 C 245.332031 159.4375 249.292969 158.3125 238.957031 162.523438 C 215.945312 169.726562 215.144531 163.121094 225.34375 155.832031 Z M 225.34375 155.832031 " fill-opacity="1" fill-rule="nonzero"/><path fill="#7f7f7f" d="M 230 142.328125 C 234.410156 140.15625 239.800781 146.433594 251.035156 147.984375 C 253.808594 148.304688 267.570312 150.859375 269.890625 148.804688 C 270.683594 148.105469 272.59375 144.589844 271.78125 150.417969 C 271.203125 151.757812 267.46875 154.351562 245.027344 150.777344 C 242.410156 150.289062 235.726562 149.625 230.269531 146.15625 C 228.207031 144.871094 228.882812 145.726562 229.996094 142.328125 Z M 230 142.328125 " fill-opacity="1" fill-rule="nonzero"/><path fill="#d6d6d6" d="M 236.074219 142.6875 C 234.464844 141.226562 232.507812 141.09375 230.527344 141.464844 C 227.816406 141.628906 228.261719 145.910156 230 147.078125 C 232.117188 148.324219 232.941406 149.164062 235.382812 148.65625 C 238.632812 148.042969 238.113281 144.855469 236.074219 142.6875 Z M 236.074219 142.6875 " fill-opacity="1" fill-rule="nonzero"/><path fill="#5c739c" d="M 209.949219 146.953125 C 203.816406 146.710938 201.828125 148.5625 197.421875 150.503906 C 185.808594 150.875 184.417969 161.363281 179.414062 162.023438 C 176.0625 162.992188 163.105469 168.898438 189.832031 165.527344 C 200.035156 161.207031 220.558594 152.925781 209.949219 146.953125 Z M 209.949219 146.953125 " fill-opacity="1" fill-rule="nonzero"/><path fill="#000000" d="M 237.550781 145.46875 C 237.550781 145.828125 237.472656 146.175781 237.316406 146.507812 C 237.160156 146.839844 236.9375 147.132812 236.652344 147.386719 C 236.363281 147.640625 236.03125 147.835938 235.65625 147.972656 C 235.277344 148.113281 234.886719 148.179688 234.480469 148.179688 C 234.074219 148.179688 233.679688 148.113281 233.304688 147.972656 C 232.929688 147.835938 232.597656 147.640625 232.308594 147.386719 C 232.019531 147.132812 231.796875 146.839844 231.644531 146.507812 C 231.488281 146.175781 231.410156 145.828125 231.410156 145.46875 C 231.410156 145.109375 231.488281 144.765625 231.644531 144.433594 C 231.796875 144.101562 232.019531 143.808594 232.308594 143.554688 C 232.597656 143.300781 232.929688 143.101562 233.304688 142.964844 C 233.679688 142.828125 234.074219 142.757812 234.480469 142.757812 C 234.886719 142.757812 235.277344 142.828125 235.65625 142.964844 C 236.03125 143.101562 236.363281 143.300781 236.652344 143.554688 C 236.9375 143.808594 237.160156 144.101562 237.316406 144.433594 C 237.472656 144.765625 237.550781 145.109375 237.550781 145.46875 Z M 237.550781 145.46875 " fill-opacity="1" fill-rule="nonzero"/><path fill="#000000" d="M 235.695312 146.855469 C 235.695312 147.0625 235.617188 147.234375 235.460938 147.378906 C 235.304688 147.523438 235.117188 147.59375 234.898438 147.59375 C 234.679688 147.59375 234.492188 147.523438 234.335938 147.378906 C 234.179688 147.234375 234.105469 147.0625 234.105469 146.855469 C 234.105469 146.652344 234.179688 146.480469 234.335938 146.335938 C 234.492188 146.191406 234.679688 146.121094 234.898438 146.121094 C 235.117188 146.121094 235.304688 146.191406 235.460938 146.335938 C 235.617188 146.480469 235.695312 146.652344 235.695312 146.855469 Z M 235.695312 146.855469 " fill-opacity="1" fill-rule="nonzero"/><path fill="#000000" d="M 256.339844 119.867188 C 256.339844 119.980469 256.28125 120.085938 256.171875 120.1875 C 256.058594 120.292969 255.902344 120.382812 255.695312 120.460938 C 255.488281 120.539062 255.253906 120.601562 254.984375 120.640625 C 254.714844 120.683594 254.433594 120.707031 254.144531 120.707031 C 253.855469 120.707031 253.574219 120.683594 253.304688 120.640625 C 253.035156 120.601562 252.800781 120.539062 252.59375 120.460938 C 252.386719 120.382812 252.230469 120.292969 252.117188 120.1875 C 252.007812 120.085938 251.949219 119.980469 251.949219 119.867188 C 251.949219 119.757812 252.007812 119.652344 252.117188 119.546875 C 252.230469 119.445312 252.386719 119.355469 252.59375 119.277344 C 252.800781 119.199219 253.035156 119.136719 253.304688 119.09375 C 253.574219 119.050781 253.855469 119.03125 254.144531 119.03125 C 254.433594 119.03125 254.714844 119.050781 254.984375 119.09375 C 255.253906 119.136719 255.488281 119.199219 255.695312 119.277344 C 255.902344 119.355469 256.058594 119.445312 256.171875 119.546875 C 256.28125 119.652344 256.339844 119.757812 256.339844 119.867188 Z M 256.339844 119.867188 " fill-opacity="1" fill-rule="nonzero"/></svg>