<svg xmlns="http://www.w3.org/2000/svg" xmlns:xlink="http://www.w3.org/1999/xlink" width="400" zoomAndPan="magnify" viewBox="0 0 300 299.999988" height="400" preserveAspectRatio="xMidYMid meet" version="1.0"><defs><clipPath id="id1"><path d="M 19.386719 56.515625 L 280.386719 56.515625 L 280.386719 223 L 19.386719 223 Z M 19.386719 56.515625 " clip-rule="nonzero"/></clipPath><clipPath id="id2"><path d="M 19.386719 56.515625 L 280.386719 56.515625 L 280.386719 223 L 19.386719 223 Z M 19.386719 56.515625 " clip-rule="nonzero"/></clipPath><clipPath id="id3"><path d="M 19.386719 129 L 95 129 L 95 181 L 19.386719 181 Z M 19.386719 129 " clip-rule="nonzero"/></clipPath></defs><g clip-path="url(#id1)"><path fill="#e7f2f1" d="M 266.601562 126.675781 C 266.601562 126.675781 272.390625 123.703125 274.726562 117.675781 C 277.0625 111.621094 280.386719 74.386719 280.386719 74.386719 C 266.515625 84.191406 256.433594 97.050781 250.582031 113.394531 C 249.675781 115.964844 246.121094 116.199219 244.835938 113.773438 L 240.375 105.339844 L 233.679688 115.25 C 231.640625 118.265625 227.957031 119.699219 224.417969 118.875 L 146.203125 100.488281 C 144.6875 100.128906 143.320312 99.308594 142.332031 98.105469 C 140.835938 96.273438 138.878906 93.066406 138.101562 88.195312 C 136.753906 79.824219 139.445312 67.109375 138.101562 62.050781 C 136.753906 57.011719 133.785156 56.757812 133.785156 56.757812 C 120.777344 65.003906 111.222656 82.566406 103.140625 104.117188 C 103.140625 104.117188 19.386719 108.164062 19.386719 129.25 C 19.386719 132.136719 20.019531 134.921875 21.199219 137.621094 C 32.625 164.210938 94.910156 180.65625 94.910156 180.65625 L 94.929688 180.636719 C 103.707031 197.585938 134.902344 225.019531 139.953125 222.339844 C 142.984375 220.738281 137.953125 211.167969 135.386719 201.152344 C 133.449219 193.558594 133.785156 188.289062 133.363281 184.09375 C 156.539062 181.898438 179.398438 177.050781 201.875 169.375 C 205.832031 174.648438 210.464844 178.042969 215.515625 180.148438 C 218.632812 181.457031 222.082031 179.179688 222.125 175.804688 L 222.316406 161.574219 C 225.554688 160.203125 228.753906 158.769531 231.976562 157.292969 C 234.734375 161.722656 238.101562 164.925781 241.953125 167.203125 C 243.785156 168.257812 246.078125 166.699219 245.761719 164.609375 C 245.027344 159.867188 245.109375 155.121094 245.996094 150.378906 C 247.992188 149.34375 249.992188 148.289062 251.972656 147.195312 L 251.992188 147.171875 C 257.085938 158.558594 266.9375 166.464844 280.386719 171.671875 C 280.386719 171.671875 278.28125 134.4375 275.460938 131.105469 C 272.621094 127.773438 266.601562 126.675781 266.601562 126.675781 Z M 266.601562 126.675781 " fill-opacity="1" fill-rule="nonzero"/></g><path fill="#e7f2f1" d="M 251.972656 147.195312 C 249.992188 148.289062 247.992188 149.34375 245.996094 150.378906 C 245.109375 155.121094 245.027344 159.867188 245.761719 164.609375 C 246.078125 166.699219 243.785156 168.257812 241.953125 167.203125 C 238.101562 164.925781 234.734375 161.722656 231.976562 157.292969 C 228.753906 158.769531 225.554688 160.203125 222.316406 161.574219 L 222.460938 151.726562 C 222.503906 148.523438 224.925781 145.84375 228.125 145.507812 C 229.367188 145.378906 230.503906 145.191406 231.15625 144.917969 C 233.113281 144.050781 233.976562 140.234375 236.945312 138.992188 C 238.773438 138.230469 243.238281 138.992188 246.351562 139.6875 C 248.265625 140.109375 249.847656 141.457031 250.457031 143.3125 C 250.898438 144.640625 251.402344 145.929688 251.992188 147.171875 Z M 251.972656 147.195312 " fill-opacity="1" fill-rule="nonzero"/><path fill="#e7f2f1" d="M 90.089844 156.34375 C 91.5625 155.839844 93.015625 154.65625 94.402344 154.910156 C 96.507812 155.269531 99.097656 159.507812 99.097656 159.507812 C 98.003906 162.480469 96.277344 164.90625 93.183594 170.683594 C 91.960938 172.980469 92.761719 176.503906 94.929688 180.636719 L 94.910156 180.65625 C 94.910156 180.65625 32.625 164.210938 21.199219 137.621094 C 21.617188 137.558594 27.597656 136.652344 31.386719 137.621094 C 35.320312 138.632812 35.574219 143.925781 38.898438 144.558594 C 42.226562 145.167969 42.960938 141.964844 46.414062 142.195312 C 49.84375 142.449219 52.433594 147.636719 56.875 148.375 C 61.292969 149.113281 61.777344 146.265625 65.230469 146.644531 C 68.683594 147.003906 71.753906 151.578125 75.207031 152.445312 C 77.964844 153.117188 80.324219 150.230469 82.53125 149.996094 C 83.078125 149.933594 83.625 150.039062 84.175781 150.398438 C 86.867188 152.253906 85.667969 155.394531 87.878906 156.386719 C 88.617188 156.722656 89.351562 156.617188 90.089844 156.34375 Z M 90.089844 156.34375 " fill-opacity="1" fill-rule="nonzero"/><path fill="#e7f2f1" d="M 196.574219 160.203125 C 198.171875 163.765625 199.941406 166.78125 201.875 169.375 C 179.398438 177.050781 156.539062 181.898438 133.363281 184.09375 C 133.195312 182.40625 132.921875 180.886719 132.3125 179.453125 C 131.238281 176.902344 127.953125 174.792969 125.007812 173.339844 C 125.007812 173.339844 126.523438 166.488281 132.5625 165.011719 C 138.585938 163.535156 141.300781 167.351562 146.707031 166.613281 C 152.140625 165.875 152.769531 161.617188 157.652344 161.214844 C 162.515625 160.816406 163.464844 164.777344 168.261719 165.011719 C 173.0625 165.261719 180.808594 155.878906 186.722656 155.648438 C 192.617188 155.394531 196.574219 160.203125 196.574219 160.203125 Z M 196.574219 160.203125 " fill-opacity="1" fill-rule="nonzero"/><g clip-path="url(#id2)"><path fill="#655f68" d="M 99.097656 159.507812 C 99.097656 159.507812 96.507812 155.269531 94.402344 154.910156 C 93.015625 154.65625 91.5625 155.839844 90.089844 156.34375 C 89.351562 156.617188 88.617188 156.722656 87.878906 156.386719 C 85.667969 155.394531 86.867188 152.253906 84.175781 150.398438 C 83.625 150.039062 83.078125 149.933594 82.53125 149.996094 C 80.324219 150.230469 77.964844 153.117188 75.207031 152.445312 C 71.753906 151.578125 68.683594 147.003906 65.230469 146.644531 C 61.777344 146.265625 61.292969 149.113281 56.875 148.375 C 52.433594 147.636719 49.84375 142.449219 46.414062 142.195312 C 42.960938 141.964844 42.226562 145.167969 38.898438 144.558594 C 35.574219 143.925781 35.320312 138.632812 31.386719 137.621094 C 27.597656 136.652344 21.617188 137.558594 21.199219 137.621094 C 20.019531 134.921875 19.386719 132.136719 19.386719 129.25 C 19.386719 108.164062 103.140625 104.117188 103.140625 104.117188 C 111.222656 82.566406 120.777344 65.003906 133.785156 56.757812 C 133.785156 56.757812 136.753906 57.011719 138.101562 62.050781 C 139.445312 67.109375 136.753906 79.824219 138.101562 88.195312 C 138.878906 93.066406 140.835938 96.273438 142.332031 98.105469 C 143.320312 99.308594 144.6875 100.128906 146.203125 100.488281 L 224.417969 118.875 C 227.957031 119.699219 231.640625 118.265625 233.679688 115.25 L 240.375 105.339844 L 244.835938 113.773438 C 246.121094 116.199219 249.675781 115.964844 250.582031 113.394531 C 256.433594 97.050781 266.515625 84.191406 280.386719 74.386719 C 280.386719 74.386719 277.0625 111.621094 274.726562 117.675781 C 272.390625 123.703125 266.601562 126.675781 266.601562 126.675781 C 266.601562 126.675781 272.621094 127.773438 275.460938 131.105469 C 278.28125 134.4375 280.386719 171.671875 280.386719 171.671875 C 266.9375 166.464844 257.085938 158.558594 251.992188 147.171875 C 251.402344 145.929688 250.898438 144.640625 250.457031 143.3125 C 249.847656 141.457031 248.265625 140.109375 246.351562 139.6875 C 243.238281 138.992188 238.773438 138.230469 236.945312 138.992188 C 233.976562 140.234375 233.113281 144.050781 231.15625 144.917969 C 230.503906 145.191406 229.367188 145.378906 228.125 145.507812 C 224.925781 145.84375 222.503906 148.523438 222.460938 151.726562 L 222.316406 161.574219 L 222.125 175.804688 C 222.082031 179.179688 218.632812 181.457031 215.515625 180.148438 C 210.464844 178.042969 205.832031 174.648438 201.875 169.375 C 199.941406 166.78125 198.171875 163.765625 196.574219 160.203125 C 196.574219 160.203125 192.617188 155.394531 186.722656 155.648438 C 180.808594 155.878906 173.0625 165.261719 168.261719 165.011719 C 163.464844 164.777344 162.515625 160.816406 157.652344 161.214844 C 152.769531 161.617188 152.140625 165.875 146.707031 166.613281 C 141.300781 167.351562 138.585938 163.535156 132.5625 165.011719 C 126.523438 166.488281 125.007812 173.339844 125.007812 173.339844 C 127.953125 174.792969 131.238281 176.902344 132.3125 179.453125 C 132.921875 180.886719 133.195312 182.40625 133.363281 184.09375 C 133.785156 188.289062 133.449219 193.558594 135.386719 201.152344 C 137.953125 211.167969 142.984375 220.738281 139.953125 222.339844 C 134.902344 225.019531 103.707031 197.585938 94.929688 180.636719 C 92.761719 176.503906 91.960938 172.980469 93.183594 170.683594 C 96.277344 164.90625 98.003906 162.480469 99.097656 159.507812 Z M 62.683594 132.371094 C 62.683594 130.03125 60.789062 128.152344 58.472656 128.152344 C 56.136719 128.152344 54.265625 130.03125 54.265625 132.371094 C 54.265625 134.691406 56.136719 136.585938 58.472656 136.585938 C 60.789062 136.585938 62.683594 134.691406 62.683594 132.371094 Z M 62.683594 132.371094 " fill-opacity="1" fill-rule="nonzero"/></g><path fill="#543927" d="M 62.683594 132.371094 C 62.683594 132.648438 62.65625 132.921875 62.601562 133.191406 C 62.550781 133.464844 62.46875 133.726562 62.363281 133.984375 C 62.257812 134.238281 62.128906 134.484375 61.972656 134.714844 C 61.820312 134.945312 61.644531 135.15625 61.449219 135.351562 C 61.253906 135.546875 61.042969 135.722656 60.8125 135.875 C 60.582031 136.03125 60.339844 136.160156 60.085938 136.265625 C 59.828125 136.371094 59.566406 136.453125 59.296875 136.507812 C 59.023438 136.558594 58.75 136.585938 58.472656 136.585938 C 58.199219 136.585938 57.925781 136.558594 57.652344 136.507812 C 57.382812 136.453125 57.117188 136.371094 56.863281 136.265625 C 56.609375 136.160156 56.363281 136.03125 56.136719 135.875 C 55.90625 135.722656 55.691406 135.546875 55.496094 135.351562 C 55.300781 135.15625 55.128906 134.945312 54.972656 134.714844 C 54.820312 134.484375 54.691406 134.238281 54.585938 133.984375 C 54.480469 133.726562 54.398438 133.464844 54.34375 133.191406 C 54.292969 132.921875 54.265625 132.648438 54.265625 132.371094 C 54.265625 132.09375 54.292969 131.820312 54.34375 131.546875 C 54.398438 131.277344 54.480469 131.011719 54.585938 130.757812 C 54.691406 130.5 54.820312 130.257812 54.972656 130.027344 C 55.128906 129.796875 55.300781 129.585938 55.496094 129.386719 C 55.691406 129.191406 55.90625 129.019531 56.136719 128.863281 C 56.363281 128.710938 56.609375 128.582031 56.863281 128.472656 C 57.117188 128.367188 57.382812 128.289062 57.652344 128.234375 C 57.925781 128.179688 58.199219 128.152344 58.472656 128.152344 C 58.75 128.152344 59.023438 128.179688 59.296875 128.234375 C 59.566406 128.289062 59.828125 128.367188 60.085938 128.472656 C 60.339844 128.582031 60.582031 128.710938 60.8125 128.863281 C 61.042969 129.019531 61.253906 129.191406 61.449219 129.386719 C 61.644531 129.585938 61.820312 129.796875 61.972656 130.027344 C 62.128906 130.257812 62.257812 130.5 62.363281 130.757812 C 62.46875 131.011719 62.550781 131.277344 62.601562 131.546875 C 62.65625 131.820312 62.683594 132.09375 62.683594 132.371094 Z M 62.683594 132.371094 " fill-opacity="1" fill-rule="nonzero"/><path fill="#5d5560" d="M 100.445312 155.5625 C 100.359375 155.5625 100.273438 155.558594 100.183594 155.546875 C 99.027344 155.402344 98.210938 154.351562 98.355469 153.195312 C 99.199219 146.457031 95.453125 137.503906 95.414062 137.410156 C 94.960938 136.339844 95.457031 135.101562 96.53125 134.648438 C 97.59375 134.191406 98.835938 134.691406 99.289062 135.761719 C 99.464844 136.167969 103.523438 145.839844 102.535156 153.71875 C 102.398438 154.785156 101.492188 155.5625 100.445312 155.5625 Z M 100.445312 155.5625 " fill-opacity="1" fill-rule="nonzero"/><g clip-path="url(#id3)"><path fill="#d6eae8" d="M 93.183594 170.683594 C 93.183594 170.683594 77.992188 169.667969 54.910156 160.203125 C 31.828125 150.738281 19.386719 129.25 19.386719 129.25 C 19.386719 132.136719 20.019531 134.921875 21.199219 137.621094 C 32.625 164.210938 94.910156 180.65625 94.910156 180.65625 L 94.929688 180.636719 C 92.761719 176.503906 91.960938 172.980469 93.183594 170.683594 Z M 93.183594 170.683594 " fill-opacity="1" fill-rule="nonzero"/></g><path fill="#d6eae8" d="M 196.574219 160.203125 C 194.710938 162.871094 145.996094 175.5625 134.515625 172.148438 C 123.035156 168.734375 119.765625 171.1875 119.765625 171.1875 C 119.765625 171.1875 122.230469 171.96875 125.007812 173.339844 C 127.953125 174.792969 131.238281 176.902344 132.3125 179.453125 C 132.921875 180.886719 133.195312 182.40625 133.363281 184.09375 C 156.539062 181.898438 179.398438 177.050781 201.875 169.375 C 199.941406 166.78125 198.171875 163.765625 196.574219 160.203125 Z M 196.574219 160.203125 " fill-opacity="1" fill-rule="nonzero"/><path fill="#d6eae8" d="M 250.457031 143.3125 C 249.847656 141.457031 248.265625 140.109375 246.351562 139.6875 C 236.710938 153.429688 222.460938 151.726562 222.460938 151.726562 L 222.316406 161.574219 C 225.554688 160.203125 228.753906 158.769531 231.976562 157.292969 C 234.734375 161.722656 238.101562 164.925781 241.953125 167.203125 C 243.785156 168.257812 246.078125 166.699219 245.761719 164.609375 C 245.027344 159.867188 245.109375 155.121094 245.996094 150.378906 C 247.992188 149.34375 249.992188 148.289062 251.972656 147.195312 L 251.992188 147.171875 C 251.402344 145.929688 250.898438 144.640625 250.457031 143.3125 Z M 250.457031 143.3125 " fill-opacity="1" fill-rule="nonzero"/><path fill="#d6eae8" d="M 79.667969 161.59375 C 79.359375 161.59375 79.050781 161.527344 78.753906 161.382812 C 77.707031 160.878906 77.269531 159.617188 77.773438 158.570312 C 79.207031 155.597656 80.101562 152.632812 80.441406 149.75 C 80.878906 146.222656 80.546875 142.765625 79.429688 139.175781 C 79.085938 138.0625 79.707031 136.878906 80.816406 136.53125 C 81.917969 136.191406 83.101562 136.808594 83.449219 137.921875 C 84.730469 142.039062 85.125 146.191406 84.621094 150.253906 C 84.230469 153.585938 83.203125 157.003906 81.566406 160.402344 C 81.199219 161.15625 80.449219 161.59375 79.667969 161.59375 Z M 79.667969 161.59375 " fill-opacity="1" fill-rule="nonzero"/><path fill="#d6eae8" d="M 88.214844 163.261719 C 87.90625 163.261719 87.597656 163.195312 87.304688 163.050781 C 86.257812 162.550781 85.8125 161.292969 86.316406 160.242188 C 87.046875 158.714844 87.632812 157.203125 88.070312 155.742188 C 89.566406 150.828125 89.539062 145.820312 87.992188 140.839844 C 87.648438 139.726562 88.269531 138.542969 89.378906 138.199219 C 90.492188 137.855469 91.667969 138.476562 92.011719 139.585938 C 93.8125 145.390625 93.839844 151.234375 92.097656 156.957031 C 91.609375 158.617188 90.9375 160.339844 90.113281 162.0625 C 89.753906 162.820312 89 163.261719 88.214844 163.261719 Z M 88.214844 163.261719 " fill-opacity="1" fill-rule="nonzero"/></svg>