<svg xmlns="http://www.w3.org/2000/svg" xmlns:xlink="http://www.w3.org/1999/xlink" width="400" zoomAndPan="magnify" viewBox="0 0 300 299.999988" height="400" preserveAspectRatio="xMidYMid meet" version="1.0"><defs><clipPath id="id1"><path d="M 8.371094 30 L 291.871094 30 L 291.871094 258 L 8.371094 258 Z M 8.371094 30 " clip-rule="nonzero"/></clipPath><clipPath id="id2"><path d="M 28 163 L 41 163 L 41 174.984375 L 28 174.984375 Z M 28 163 " clip-rule="nonzero"/></clipPath><clipPath id="id3"><path d="M 16 183 L 47 183 L 47 206 L 16 206 Z M 16 183 " clip-rule="nonzero"/></clipPath><clipPath id="id4"><path d="M 46.96875 191.136719 L 26.832031 205.527344 L 16.800781 191.492188 L 36.9375 177.101562 Z M 46.96875 191.136719 " clip-rule="nonzero"/></clipPath><clipPath id="id5"><path d="M 71.828125 214.992188 L 16.910156 254.238281 L -13.613281 211.523438 L 41.304688 172.277344 Z M 71.828125 214.992188 " clip-rule="nonzero"/></clipPath></defs><g clip-path="url(#id1)"><path fill="#61af56" d="M 67.585938 125.726562 C 67.585938 125.726562 16.109375 62.519531 104.523438 32.007812 C 107.242188 31.0625 109.84375 33.660156 108.898438 36.375 L 97.730469 69.484375 C 97.136719 71.253906 97.078125 73.203125 97.492188 75.03125 L 100.566406 87.1875 Z M 101.332031 177.425781 C 101.332031 177.425781 74.738281 225.351562 117.054688 248.191406 C 150.566406 266.25 185.199219 254.152344 198.261719 248.25 C 200.683594 247.1875 200.921875 243.824219 198.675781 242.40625 L 141.226562 206.109375 C 139.574219 205.046875 138.746094 203.101562 139.160156 201.152344 L 141.464844 190.46875 Z M 72.847656 139.949219 L 66.582031 145.441406 C 64.867188 146.972656 62.5625 147.683594 60.257812 147.503906 L 36.320312 145.378906 C 27.160156 144.554688 18.53125 149.570312 14.632812 157.890625 L 12.679688 162.199219 C 9.960938 168.101562 8.542969 173.414062 8.898438 179.140625 C 9.195312 184.15625 12.207031 188.640625 16.699219 190.941406 C 21.84375 193.539062 29.585938 196.371094 37.976562 195.605469 L 44.832031 195.132812 C 55.410156 194.367188 65.695312 191.355469 75.035156 186.398438 L 95.71875 175.304688 L 96.84375 141.957031 Z M 232.539062 61.339844 L 244.597656 55.082031 C 248.023438 53.3125 250.859375 50.714844 252.988281 47.46875 C 255.707031 43.277344 254.171875 37.671875 249.738281 35.429688 L 248.554688 34.839844 C 242.527344 31.710938 235.789062 30 228.992188 30 C 194.300781 30.117188 176.6875 56.5 176.6875 56.5 Z M 234.078125 151.933594 L 250.152344 153.464844 C 257.125 154.117188 264.039062 151.871094 269.300781 147.210938 L 284.429688 133.753906 C 289.101562 129.621094 291.699219 123.542969 291.464844 117.347656 L 291.050781 105.601562 C 290.933594 101.765625 286.796875 99.289062 283.367188 101.058594 C 272.257812 106.664062 256.238281 111.089844 256.238281 111.089844 Z M 234.078125 151.933594 " fill-opacity="1" fill-rule="nonzero"/></g><path fill="#3e7f33" d="M 61.855469 127.792969 L 63.332031 120.296875 C 65.457031 109.496094 71.664062 99.996094 80.707031 93.738281 C 103.757812 77.746094 151.570312 49.949219 200.328125 54.257812 C 268.179688 60.21875 261.441406 87.957031 261.441406 87.957031 C 259.726562 91.851562 259.078125 96.160156 259.609375 100.410156 L 259.609375 100.46875 C 260.554688 108.023438 258.367188 115.636719 253.640625 121.597656 L 250.035156 126.140625 C 247.90625 128.855469 246.25 131.925781 245.246094 135.230469 L 241.167969 148.746094 C 239.21875 155.117188 234.726562 160.371094 228.757812 163.261719 L 216.640625 169.105469 C 214.988281 169.933594 213.449219 170.875 212.03125 172.058594 L 198.082031 183.566406 C 195.835938 185.453125 193.179688 186.753906 190.339844 187.519531 L 171.074219 192.476562 C 170.304688 192.652344 169.539062 192.949219 168.828125 193.304688 L 158.484375 198.082031 C 152.8125 200.738281 146.371094 201.269531 140.28125 199.675781 L 132.953125 197.730469 C 130.882812 197.199219 128.699219 197.199219 126.628906 197.730469 L 124.441406 198.320312 C 117.054688 200.269531 109.195312 198.144531 103.757812 192.773438 L 92.054688 181.265625 C 89.75 179.019531 88.214844 176.128906 87.5625 172.941406 L 85.199219 161.199219 C 83.78125 153.996094 78.992188 147.859375 72.375 144.613281 L 69.476562 143.195312 C 63.746094 140.421875 60.613281 134.109375 61.855469 127.792969 Z M 61.855469 127.792969 " fill-opacity="1" fill-rule="nonzero"/><path fill="#61af56" d="M 38.273438 163.617188 C 38.273438 165.386719 36.855469 166.804688 35.082031 166.804688 C 33.308594 166.804688 31.890625 165.386719 31.890625 163.617188 C 31.890625 161.847656 33.308594 160.429688 35.082031 160.429688 C 36.855469 160.429688 38.273438 161.847656 38.273438 163.617188 Z M 17.882812 191.945312 C 18.472656 191.886719 31.890625 190.53125 41.109375 182.324219 C 41.582031 181.914062 41.640625 181.144531 41.226562 180.671875 C 40.8125 180.203125 40.046875 180.140625 39.574219 180.554688 C 31.003906 188.226562 17.824219 189.585938 17.703125 189.585938 C 17.054688 189.644531 16.582031 190.234375 16.640625 190.882812 C 16.699219 191.472656 17.230469 191.945312 17.824219 191.945312 C 17.765625 191.945312 17.824219 191.945312 17.882812 191.945312 Z M 17.882812 191.945312 " fill-opacity="1" fill-rule="nonzero"/><path fill="#61af56" d="M 249.621094 86.480469 C 247.847656 74.144531 240.046875 63.875 226.570312 56.027344 C 225.980469 55.671875 225.269531 55.910156 224.972656 56.441406 C 224.679688 56.972656 224.855469 57.738281 225.386719 58.035156 C 238.214844 65.527344 245.601562 75.207031 247.257812 86.835938 C 248.261719 93.679688 247.316406 101.117188 244.476562 109.027344 L 212.386719 100.289062 L 208.601562 80.460938 L 221.015625 55.496094 C 221.308594 54.90625 221.074219 54.199219 220.484375 53.902344 C 219.890625 53.605469 219.183594 53.84375 218.886719 54.433594 L 206.832031 78.808594 L 182.835938 69.894531 L 177.753906 54.964844 C 177.515625 54.375 176.867188 54.019531 176.273438 54.199219 C 175.683594 54.433594 175.328125 55.082031 175.507812 55.671875 L 180.589844 70.605469 L 169.417969 88.308594 L 146.429688 79.871094 L 142.230469 63.464844 C 142.054688 62.8125 141.40625 62.460938 140.8125 62.636719 C 140.164062 62.8125 139.808594 63.464844 139.984375 64.054688 L 144.183594 80.460938 L 125.035156 102.003906 L 97.253906 97.042969 L 94.832031 84.886719 C 94.714844 84.238281 94.0625 83.824219 93.414062 83.941406 C 92.765625 84.0625 92.351562 84.710938 92.46875 85.359375 L 94.949219 97.871094 L 78.402344 131.15625 L 75.507812 129.683594 C 73.261719 128.558594 71.605469 126.496094 71.015625 124.015625 L 67.585938 109.851562 C 67.410156 109.203125 66.816406 108.847656 66.167969 108.964844 C 65.519531 109.144531 65.164062 109.734375 65.28125 110.382812 L 68.710938 124.546875 C 69.476562 127.675781 71.546875 130.332031 74.441406 131.746094 L 88.273438 138.710938 C 89.925781 139.539062 91.226562 140.894531 91.9375 142.605469 L 102.574219 167.628906 C 103.578125 169.992188 105.117188 172.058594 107.066406 173.648438 C 108.898438 175.125 111.441406 176.894531 114.691406 178.609375 C 114.925781 178.960938 115.28125 179.199219 115.695312 179.199219 C 115.753906 179.199219 115.753906 179.199219 115.8125 179.199219 C 121.960938 182.207031 130.410156 184.863281 141.285156 184.863281 C 142.113281 184.863281 143 184.863281 143.828125 184.804688 C 145.484375 184.746094 147.195312 184.628906 148.851562 184.449219 C 148.910156 184.449219 148.96875 184.449219 149.027344 184.449219 C 149.207031 184.449219 149.324219 184.390625 149.5 184.332031 C 171.722656 181.792969 196.308594 169.105469 222.789062 146.5625 C 223.378906 146.089844 223.910156 145.558594 224.382812 145.027344 C 226.511719 142.785156 233.839844 134.640625 240.105469 123.722656 C 248.082031 110.207031 251.273438 97.636719 249.621094 86.480469 Z M 204.523438 149.808594 L 212.679688 151.933594 C 207.65625 155.828125 202.691406 159.425781 197.847656 162.613281 Z M 193.886719 165.152344 C 188.449219 168.515625 183.070312 171.40625 177.871094 173.769531 L 160.789062 165.152344 L 157.65625 138.828125 L 176.746094 117.109375 L 199.089844 125.3125 L 202.691406 148.214844 Z M 160.140625 167.453125 L 175.035156 175.007812 C 166.878906 178.488281 159.015625 180.792969 151.394531 181.855469 Z M 130.53125 125.667969 L 126.746094 103.65625 L 145.835938 82.230469 L 169.003906 90.730469 L 175.210938 115.457031 L 156.179688 137.058594 Z M 199.621094 123.011719 L 177.457031 114.867188 L 171.25 90.023438 L 182.480469 72.316406 L 206.476562 81.226562 L 210.257812 101.175781 Z M 89.394531 136.703125 L 80.589844 132.277344 L 96.902344 99.40625 L 124.441406 104.363281 L 128.226562 126.199219 L 110.082031 151.105469 L 98.910156 152.875 L 94.183594 141.78125 C 93.238281 139.539062 91.523438 137.765625 89.394531 136.703125 Z M 104.761719 166.804688 L 99.796875 155.117188 L 109.726562 153.523438 L 114.039062 175.65625 C 111.792969 174.359375 109.960938 173 108.542969 171.878906 C 106.949219 170.582031 105.648438 168.8125 104.761719 166.804688 Z M 143.828125 182.5625 C 132.066406 182.976562 123.082031 180.261719 116.757812 177.132812 L 111.972656 152.460938 L 129.878906 127.96875 L 155.410156 139.300781 L 158.542969 165.683594 L 148.554688 182.265625 C 146.902344 182.386719 145.363281 182.503906 143.828125 182.5625 Z M 238.152344 122.71875 C 232.007812 133.398438 224.796875 141.425781 222.730469 143.609375 C 222.316406 144.082031 221.84375 144.554688 221.308594 144.96875 C 219.183594 146.796875 217.113281 148.507812 214.988281 150.160156 L 204.9375 147.503906 L 201.394531 124.664062 L 212.03125 102.652344 L 243.652344 111.269531 C 242.230469 114.984375 240.398438 118.824219 238.152344 122.71875 Z M 238.152344 122.71875 " fill-opacity="1" fill-rule="nonzero"/><path fill="#8dd880" d="M 65.753906 161.964844 C 64.691406 162.378906 63.449219 162.378906 62.328125 162.261719 C 60.96875 162.082031 59.546875 161.789062 58.484375 160.902344 C 57.421875 160.015625 56.832031 158.421875 57.421875 157.183594 C 59.195312 153.464844 67.824219 155.238281 67.765625 159.367188 C 67.765625 160.488281 66.816406 161.492188 65.753906 161.964844 Z M 69.242188 149.453125 C 68.828125 149.335938 68.117188 149.511719 67.527344 150.21875 C 67.054688 150.808594 66.816406 151.695312 67.230469 152.34375 C 69.597656 155.769531 74.207031 149.925781 69.242188 149.453125 M 79.40625 162.613281 C 81.476562 159.722656 74.796875 153.703125 73.320312 157.714844 C 72.90625 158.894531 73.554688 160.195312 74.324219 161.199219 C 74.914062 162.023438 75.625 162.851562 76.628906 163.203125 C 77.515625 163.617188 78.757812 163.5 79.40625 162.613281 Z M 73.261719 169.695312 C 71.722656 166.6875 65.398438 167.867188 63.863281 169.933594 C 63.566406 170.34375 63.273438 170.757812 63.332031 171.230469 C 63.390625 171.996094 64.21875 172.46875 64.925781 172.707031 C 66.816406 173.296875 68.828125 173.414062 70.71875 172.882812 C 71.488281 172.707031 72.253906 172.410156 72.789062 171.820312 C 73.320312 171.230469 73.613281 170.40625 73.261719 169.695312 Z M 67.585938 97.457031 C 70.011719 95.980469 74.441406 90.613281 70.601562 88.132812 C 68.886719 87.011719 64.632812 88.78125 63.390625 90.140625 C 61.855469 91.792969 61.320312 94.210938 61.914062 96.335938 C 62.089844 96.925781 62.328125 97.515625 62.800781 97.929688 C 64.101562 99.050781 66.109375 98.34375 67.585938 97.457031 Z M 80.472656 81.109375 C 79.820312 82.289062 79.9375 84 81.121094 84.769531 C 82.183594 85.476562 83.664062 85.003906 84.785156 84.472656 C 86.261719 83.765625 87.679688 82.878906 88.6875 81.582031 C 91.582031 77.863281 82.480469 77.570312 80.472656 81.109375 Z M 73.261719 80.578125 C 77.101562 79.8125 77.21875 72.90625 73.203125 74.558594 C 71.722656 75.148438 70.71875 77.332031 70.894531 78.808594 C 70.957031 79.164062 71.015625 79.515625 71.25 79.8125 C 71.605469 80.460938 72.492188 80.695312 73.261719 80.578125 Z M 89.039062 69.363281 C 96.191406 62.992188 81.59375 59.035156 82.421875 67.949219 C 82.480469 68.773438 82.777344 69.601562 83.367188 70.191406 C 84.136719 70.957031 85.316406 71.136719 86.320312 70.898438 C 87.328125 70.664062 88.273438 70.074219 89.039062 69.363281 Z M 198.496094 48.414062 C 198.378906 49.359375 198.910156 50.359375 199.738281 50.890625 C 200.507812 51.421875 201.511719 51.660156 202.457031 51.777344 C 203.640625 51.894531 204.761719 51.835938 205.945312 51.601562 C 207.125 51.363281 208.425781 50.832031 208.957031 49.769531 C 210.789062 46.054688 201.984375 45.402344 200.09375 46.40625 C 199.324219 46.820312 198.613281 47.527344 198.496094 48.414062 Z M 223.496094 50.066406 C 222.90625 48.828125 219.003906 44.929688 217.585938 46.230469 C 216.640625 47.117188 218.179688 50.183594 218.886719 50.890625 C 220.070312 51.953125 224.855469 52.898438 223.496094 50.066406 Z M 230.351562 41.214844 C 228.875 39.441406 223.4375 37.910156 224.738281 42.039062 C 225.269531 43.75 229.230469 45.167969 230.648438 43.808594 C 231.359375 43.101562 231.003906 41.921875 230.351562 41.214844 Z M 269.125 122.363281 C 269.597656 121.359375 269.65625 120.238281 269.300781 119.175781 C 268.414062 115.988281 263.6875 113.6875 262.03125 117.699219 C 260.496094 121.476562 266.820312 126.90625 269.125 122.363281 Z M 260.257812 127.96875 C 257.597656 126.496094 255.175781 129.800781 255.058594 132.101562 C 254.761719 137.355469 259.902344 134.699219 261.203125 131.746094 C 261.796875 130.449219 261.5 128.679688 260.257812 127.96875 Z M 256.238281 145.910156 C 256.832031 145.378906 256.652344 144.496094 256.359375 143.789062 C 255.886719 142.605469 255.175781 141.484375 254.347656 140.601562 C 253.226562 139.417969 251.15625 138.652344 250.566406 140.542969 C 249.972656 142.429688 254.40625 147.5625 256.238281 145.910156 Z M 263.035156 137.765625 C 261.441406 139.242188 263.214844 142.3125 265.046875 140.894531 C 266.820312 139.480469 265.222656 135.761719 263.035156 137.765625 Z M 105.882812 209.414062 C 105.351562 209.710938 104.523438 210.890625 103.816406 212.1875 C 103.164062 213.3125 102.753906 214.609375 102.8125 215.90625 C 102.871094 217.207031 103.578125 218.503906 104.761719 219.035156 C 105.882812 219.566406 107.183594 219.332031 108.367188 218.976562 C 109.3125 218.621094 110.257812 218.210938 110.96875 217.5 C 114.335938 214.136719 110.316406 207.585938 105.882812 209.414062 C 106.238281 209.414062 106.59375 209.414062 106.949219 209.414062 M 114.101562 225.351562 C 115.046875 228.007812 117.644531 229.363281 120.363281 230.128906 C 121.605469 230.484375 123.140625 230.484375 123.910156 229.421875 C 124.796875 228.183594 123.96875 226.472656 122.90625 225.410156 C 121.132812 223.578125 118.769531 222.339844 116.285156 221.925781 C 115.398438 221.808594 114.277344 221.808594 113.746094 222.515625 C 111.617188 225.054688 118.945312 229.363281 121.015625 229.777344 M 127.042969 216.734375 C 131.238281 213.902344 123.734375 213.015625 122.433594 212.839844 C 119.832031 212.542969 120.1875 215.847656 121.84375 216.792969 C 122.730469 217.324219 123.792969 217.382812 124.796875 217.324219 C 125.566406 217.324219 126.394531 217.148438 127.042969 216.734375 Z M 136.558594 224.640625 C 135.082031 223.519531 129.761719 222.046875 130.765625 225.527344 C 131.179688 226.945312 134.136719 228.242188 135.433594 228.359375 C 136.261719 228.417969 137.207031 228.242188 137.621094 227.59375 C 138.214844 226.589844 137.445312 225.351562 136.558594 224.640625 Z M 131.179688 240.636719 C 131.832031 239.160156 132.480469 236.328125 131.769531 234.792969 C 129.820312 230.601562 127.28125 235.382812 126.628906 237.273438 C 126.214844 238.570312 126.15625 240.046875 126.867188 241.167969 C 127.632812 242.289062 129.347656 242.761719 130.351562 241.875 C 130.765625 241.519531 131.003906 241.109375 131.179688 240.636719 Z M 131.179688 240.636719 " fill-opacity="1" fill-rule="nonzero"/><g clip-path="url(#id2)"><path fill="#824717" d="M 29.109375 166.527344 C 29.109375 166.527344 27.820312 169.128906 28.585938 170.4375 C 29.347656 171.742188 30.144531 174.179688 32.25 174.582031 C 34.355469 174.984375 37.902344 173.835938 39.003906 172.699219 C 40.109375 171.566406 41.316406 168.175781 38.972656 165.386719 C 36.628906 162.59375 33.328125 162.234375 29.109375 166.527344 Z M 29.109375 166.527344 " fill-opacity="1" fill-rule="nonzero"/></g><g clip-path="url(#id3)"><g clip-path="url(#id4)"><g clip-path="url(#id5)"><path fill="#824717" d="M 44.347656 219.878906 C 44.289062 219.976562 44.710938 220.617188 44.753906 220.734375 C 44.8125 220.839844 45.210938 221.5 45.152344 221.597656 C 44.292969 223.207031 43.359375 224.761719 42.339844 226.269531 C 38.394531 232.0625 33.015625 237.21875 26.320312 239.601562 C 20.8125 241.558594 14.476562 241.632812 9.105469 239.167969 C 6.261719 237.871094 3.8125 235.835938 1.988281 233.3125 C 1.101562 232.097656 0.417969 230.773438 -0.222656 229.441406 C -0.886719 228.046875 -1.496094 226.652344 -1.929688 225.167969 C -3.773438 218.851562 -2.652344 212.175781 0.398438 206.445312 C 3.789062 200.082031 9.265625 195.171875 15.390625 191.496094 C 18.660156 189.550781 22.117188 187.894531 25.648438 186.496094 C 28.367188 185.402344 31.171875 184.507812 34.050781 183.949219 C 39.628906 182.863281 45.761719 183.175781 50.429688 186.792969 C 53.1875 188.925781 54.859375 191.832031 56.273438 194.945312 C 57.644531 197.972656 58.269531 201.242188 58.242188 204.554688 C 58.164062 211.300781 55.652344 217.992188 52.265625 223.742188 C 48.683594 229.8125 43.753906 235.054688 37.9375 239.027344 C 38.011719 238.972656 37.027344 237.367188 37.125 237.296875 C 38.503906 236.367188 39.84375 235.355469 41.117188 234.277344 C 46.214844 229.96875 50.394531 224.578125 53.308594 218.578125 C 56.097656 212.816406 58.007812 206.238281 57.273438 199.773438 C 57.082031 198.136719 56.722656 196.527344 56.167969 194.980469 C 56.050781 194.660156 55.910156 194.335938 55.78125 194 C 55.511719 193.289062 56.128906 194.640625 55.878906 194.1875 C 55.65625 193.796875 55.453125 193.386719 55.214844 193 C 54.808594 192.328125 54.347656 191.679688 53.84375 191.078125 C 51.925781 188.734375 49.394531 186.996094 46.515625 186.058594 C 41.226562 184.328125 35.414062 185.265625 30.242188 186.894531 C 27.1875 187.855469 24.226562 189.121094 21.34375 190.496094 C 17.917969 192.148438 14.605469 194.054688 11.578125 196.367188 C 6.402344 200.285156 2.042969 205.398438 -0.308594 211.515625 C -1.421875 214.4375 -2.054688 217.550781 -2.042969 220.683594 C -2.023438 222.257812 -1.859375 223.824219 -1.519531 225.355469 C -1.347656 226.140625 -1.144531 226.917969 -0.890625 227.679688 C -0.769531 228.054688 -0.636719 228.421875 -0.492188 228.78125 C -0.414062 228.964844 -0.339844 229.152344 -0.261719 229.335938 C 0.0078125 229.996094 -0.625 228.671875 -0.273438 229.292969 C 1.261719 231.984375 3.15625 234.324219 5.765625 236.066406 C 8.089844 237.621094 10.765625 238.609375 13.511719 239.050781 C 19.421875 240.023438 25.488281 238.589844 30.550781 235.46875 C 36.539062 231.761719 41.050781 226.042969 44.347656 219.878906 Z M 44.347656 219.878906 " fill-opacity="1" fill-rule="nonzero"/></g></g></g></svg>