<svg xmlns="http://www.w3.org/2000/svg" xmlns:xlink="http://www.w3.org/1999/xlink" width="400" zoomAndPan="magnify" viewBox="0 0 300 299.999988" height="400" preserveAspectRatio="xMidYMid meet" version="1.0"><defs><clipPath id="id1"><path d="M 36 20.632812 L 264.4375 20.632812 L 264.4375 279 L 36 279 Z M 36 20.632812 " clip-rule="nonzero"/></clipPath></defs><path fill="#1549af" d="M 84.402344 108.011719 L 92.65625 103.148438 C 93.804688 102.496094 95.171875 103.640625 94.625 104.84375 L 87.847656 121.511719 L 82.980469 113.859375 Z M 185 176.648438 C 183.960938 173.207031 167.996094 160.035156 167.996094 160.035156 C 167.996094 160.035156 155.53125 148.617188 161.761719 160.746094 C 167.996094 172.878906 157.28125 174.957031 157.28125 174.957031 C 157.28125 174.957031 186.035156 180.148438 185 176.648438 Z M 185 176.648438 " fill-opacity="1" fill-rule="nonzero"/><g clip-path="url(#id1)"><path fill="#3a75fb" d="M 264.109375 202.003906 C 264.054688 201.347656 263.945312 200.695312 263.726562 200.09375 C 263.453125 199.21875 263.015625 198.398438 262.414062 197.6875 C 261.921875 197.085938 261.429688 196.484375 260.882812 195.886719 C 258.257812 193.152344 255.03125 190.964844 251.480469 189.601562 C 239.125 184.847656 214.464844 176.703125 191.613281 176.976562 C 173.1875 177.195312 155.96875 175.554688 139.402344 169.4375 C 139.074219 169.328125 138.800781 169 138.800781 168.617188 C 137.105469 144.460938 130.871094 134.679688 130.871094 134.679688 C 130.871094 134.679688 126.71875 126.375 115.621094 140.582031 C 112.722656 144.242188 109.878906 147.25 107.253906 149.707031 C 106.925781 150.035156 106.433594 150.035156 106.050781 149.707031 C 105.066406 148.890625 103.972656 148.125 103.097656 147.140625 C 87.902344 130.199219 85.113281 104.570312 84.949219 89.488281 C 84.839844 79.816406 87.410156 71.78125 93.039062 63.96875 C 94.898438 61.398438 97.304688 57.847656 99.984375 54.953125 C 106.761719 47.628906 123.109375 29.707031 128.140625 22.984375 C 128.851562 22 128.085938 20.632812 126.882812 20.742188 C 121.140625 21.234375 92.710938 38.339844 92.710938 38.339844 L 81.449219 45.007812 C 80.027344 46.042969 78.222656 46.371094 76.527344 45.933594 L 45.09375 37.957031 C 44.273438 37.738281 43.617188 38.722656 44.164062 39.378906 L 56.300781 53.804688 C 57.394531 55.117188 61.382812 59.816406 62.367188 61.238281 C 65.648438 66.046875 72.484375 75.992188 63.242188 108.011719 C 62.367188 111.074219 61.273438 114.023438 60.621094 117.085938 C 60.511719 117.6875 59.800781 117.960938 59.253906 117.632812 L 54.714844 114.679688 C 52.910156 113.476562 49.519531 111.347656 51.597656 117.359375 L 58.542969 131.839844 C 58.597656 131.949219 58.652344 132.113281 58.652344 132.277344 C 58.050781 145.71875 60.128906 158.726562 62.640625 169.054688 C 62.804688 169.65625 62.3125 170.199219 61.710938 170.144531 C 59.089844 169.984375 55.097656 169.875 50.066406 170.035156 C 46.570312 170.144531 43.125 169.765625 40.445312 169.21875 C 37.875 168.726562 35.90625 171.511719 37.273438 173.753906 C 39.296875 177.140625 43.289062 181.238281 51.105469 183.863281 C 60.671875 187.140625 68.492188 192.824219 72.976562 196.648438 C 73.03125 196.703125 73.085938 196.757812 73.140625 196.8125 C 79.917969 207.742188 96.15625 229.875 122.5625 241.679688 C 123.164062 241.953125 123.273438 242.769531 122.726562 243.207031 C 120.375 245.011719 118.023438 247.417969 115.949219 250.695312 C 110.589844 259.273438 100.039062 268.128906 93.585938 273.101562 C 91.5625 274.683594 92.492188 277.910156 95.0625 278.183594 C 107.636719 279.382812 135.847656 278.019531 165.371094 249.492188 C 165.535156 249.328125 165.699219 249.273438 165.917969 249.21875 C 166.027344 249.21875 166.136719 249.21875 166.300781 249.21875 C 166.355469 249.21875 166.410156 249.21875 166.464844 249.21875 C 168.652344 249.492188 219.277344 254.792969 248.035156 229.4375 C 258.75 219.984375 262.523438 216.542969 264.21875 205.285156 C 264.21875 205.175781 264.21875 203.152344 264.109375 202.003906 Z M 264.109375 202.003906 " fill-opacity="1" fill-rule="nonzero"/></g><path fill="#492f2e" d="M 212.007812 235.886719 C 212.007812 237.304688 210.859375 238.453125 209.4375 238.453125 C 208.015625 238.453125 206.867188 237.304688 206.867188 235.886719 C 206.867188 234.464844 208.015625 233.316406 209.4375 233.316406 C 210.859375 233.316406 212.007812 234.464844 212.007812 235.886719 Z M 212.007812 235.886719 " fill-opacity="1" fill-rule="nonzero"/><path fill="#a8c5fd" d="M 263.890625 200.3125 C 261.265625 216.648438 235.953125 238.617188 225.511719 239.710938 C 218.566406 240.421875 219.113281 238.234375 220.535156 236.542969 C 221.410156 235.449219 222.613281 234.628906 223.980469 234.136719 C 248.855469 225.121094 259.296875 200.804688 261.101562 196.15625 C 261.648438 196.703125 262.140625 197.304688 262.632812 197.960938 C 263.179688 198.617188 263.617188 199.4375 263.890625 200.3125 Z M 263.890625 200.3125 " fill-opacity="1" fill-rule="nonzero"/><path fill="#1549af" d="M 183.742188 244.792969 C 183.359375 244.792969 183.03125 244.464844 183.085938 244.082031 C 183.25 227.632812 197.246094 216.269531 197.410156 216.160156 C 197.683594 215.941406 198.121094 215.996094 198.394531 216.269531 C 198.613281 216.542969 198.558594 216.976562 198.285156 217.25 C 198.175781 217.359375 184.671875 228.34375 184.507812 244.136719 C 184.453125 244.464844 184.125 244.792969 183.742188 244.792969 Z M 175.976562 243.042969 C 176.140625 229.601562 188.332031 215.558594 188.441406 215.394531 C 188.714844 215.121094 188.660156 214.683594 188.386719 214.410156 C 188.113281 214.136719 187.675781 214.191406 187.402344 214.464844 C 187.292969 214.628906 184.179688 218.125 181.0625 223.425781 C 178.164062 228.34375 174.664062 235.667969 174.554688 242.988281 C 174.554688 243.371094 174.828125 243.699219 175.210938 243.699219 C 175.648438 243.753906 175.921875 243.425781 175.976562 243.042969 Z M 168.050781 243.371094 C 168.433594 243.316406 168.707031 242.988281 168.652344 242.605469 C 167.121094 225.667969 179.75 214.683594 179.859375 214.574219 C 180.132812 214.355469 180.1875 213.917969 179.914062 213.589844 C 179.695312 213.316406 179.257812 213.261719 178.929688 213.535156 C 178.820312 213.644531 165.699219 225.066406 167.230469 242.714844 C 167.285156 243.042969 167.558594 243.316406 167.886719 243.316406 C 167.996094 243.371094 168.050781 243.371094 168.050781 243.371094 Z M 162.746094 243.644531 C 163.074219 243.480469 163.238281 243.097656 163.074219 242.714844 C 159.464844 234.957031 167.339844 220.257812 167.394531 220.09375 C 167.558594 219.765625 167.449219 219.328125 167.121094 219.164062 C 166.792969 219 166.355469 219.109375 166.191406 219.4375 C 165.863281 220.039062 157.933594 234.902344 161.816406 243.261719 C 161.925781 243.535156 162.199219 243.644531 162.417969 243.644531 C 162.527344 243.753906 162.636719 243.699219 162.746094 243.644531 Z M 155.96875 243.917969 C 156.351562 243.863281 156.625 243.535156 156.570312 243.152344 C 155.367188 234.683594 156.40625 229.4375 157.5 226.488281 C 158.644531 223.371094 160.121094 222.167969 160.121094 222.113281 C 160.394531 221.894531 160.449219 221.460938 160.230469 221.132812 C 160.011719 220.859375 159.574219 220.804688 159.246094 221.023438 C 158.972656 221.242188 152.742188 226.324219 155.203125 243.316406 C 155.257812 243.644531 155.53125 243.917969 155.859375 243.917969 C 155.859375 243.917969 155.914062 243.917969 155.96875 243.917969 Z M 122.726562 242.933594 C 122.78125 242.878906 128.140625 239.382812 131.691406 239.382812 C 132.074219 239.382812 132.347656 239.054688 132.347656 238.726562 C 132.347656 238.398438 132.019531 238.070312 131.691406 238.070312 C 127.703125 238.070312 122.179688 241.679688 121.960938 241.84375 C 121.632812 242.0625 121.578125 242.496094 121.742188 242.769531 C 121.851562 242.988281 122.070312 243.097656 122.289062 243.097656 C 122.507812 243.042969 122.617188 242.988281 122.726562 242.933594 Z M 142.464844 191.457031 C 142.792969 191.292969 142.902344 190.855469 142.738281 190.53125 C 139.730469 185.175781 139.128906 169.21875 139.128906 169.054688 C 139.128906 168.671875 138.800781 168.34375 138.417969 168.398438 C 138.035156 168.398438 137.761719 168.726562 137.761719 169.109375 C 137.761719 169.765625 138.363281 185.554688 141.535156 191.183594 C 141.644531 191.402344 141.917969 191.511719 142.136719 191.511719 C 142.246094 191.566406 142.355469 191.511719 142.464844 191.457031 Z M 92.765625 160.527344 C 93.203125 160.363281 103.972656 156.921875 106.925781 150.363281 C 107.089844 150.035156 106.925781 149.597656 106.597656 149.433594 C 106.269531 149.273438 105.832031 149.433594 105.667969 149.761719 C 102.933594 155.773438 92.4375 159.109375 92.328125 159.164062 C 91.945312 159.273438 91.78125 159.65625 91.890625 160.035156 C 92 160.308594 92.273438 160.527344 92.546875 160.527344 C 92.601562 160.527344 92.710938 160.527344 92.765625 160.527344 Z M 68.4375 172.113281 C 68.710938 171.839844 68.710938 171.402344 68.4375 171.128906 C 67.070312 169.765625 63.078125 169.382812 62.640625 169.382812 C 62.257812 169.328125 61.929688 169.65625 61.875 169.984375 C 61.820312 170.363281 62.148438 170.691406 62.476562 170.746094 C 64.007812 170.855469 66.6875 171.347656 67.453125 172.113281 C 67.5625 172.222656 67.78125 172.332031 67.945312 172.332031 C 68.109375 172.332031 68.273438 172.277344 68.4375 172.113281 Z M 68.4375 172.113281 " fill-opacity="1" fill-rule="nonzero"/><path fill="#a8c5fd" d="M 168.378906 189.4375 C 168.324219 189.21875 168.488281 188.945312 168.652344 188.78125 C 169.800781 187.359375 173.570312 186.210938 174.9375 187.960938 C 177.179688 190.800781 170.511719 191.128906 168.816406 189.984375 C 168.597656 189.820312 168.433594 189.65625 168.378906 189.4375 Z M 119.554688 258.617188 C 121.25 259.765625 127.867188 259.4375 125.679688 256.597656 C 124.3125 254.847656 120.539062 256.050781 119.390625 257.417969 C 119.226562 257.636719 119.0625 257.855469 119.117188 258.070312 C 119.171875 258.289062 119.335938 258.453125 119.554688 258.617188 Z M 190.957031 188.179688 C 192.871094 186.648438 187.675781 184.519531 187.402344 187.03125 C 187.292969 187.851562 187.949219 188.617188 188.714844 188.78125 C 189.480469 189 190.300781 188.726562 190.957031 188.179688 Z M 202.984375 189.710938 C 201.34375 188.835938 199.59375 189.21875 197.902344 189.984375 C 196.863281 190.476562 195.878906 191.675781 196.480469 192.660156 C 196.644531 192.933594 196.972656 193.152344 197.246094 193.316406 C 199.484375 194.410156 206.703125 191.894531 202.984375 189.710938 M 220.753906 192.660156 C 223.378906 194.136719 227.804688 191.949219 224.253906 189.492188 C 222.667969 188.398438 219.550781 188.015625 219.386719 190.640625 C 219.332031 191.457031 219.988281 192.222656 220.753906 192.660156 Z M 223.597656 198.234375 C 222.449219 197.742188 221.136719 197.851562 220.480469 198.945312 C 219.878906 199.875 220.699219 201.183594 221.738281 201.457031 C 224.144531 202.058594 226.441406 199.546875 223.597656 198.234375 M 241.582031 199.054688 C 244.808594 197.796875 240.492188 196.429688 238.6875 197.195312 C 238.195312 197.414062 237.703125 197.851562 237.703125 198.398438 C 237.757812 198.835938 238.140625 199.164062 238.523438 199.328125 C 239.5625 199.65625 240.65625 199.4375 241.582031 199.054688 Z M 224.527344 213.863281 C 226.496094 213.917969 228.625 212.878906 229.5 211.132812 C 228.242188 209.984375 223.433594 210.695312 222.941406 212.550781 C 222.722656 213.316406 223.707031 213.863281 224.527344 213.863281 Z M 211.625 205.996094 C 211.132812 204.410156 208.671875 204.410156 208.289062 206.105469 C 207.742188 208.671875 212.5 208.726562 211.625 205.996094 Z M 210.585938 215.996094 C 210.367188 216.59375 210.96875 217.359375 211.40625 217.796875 C 211.84375 218.234375 212.445312 218.507812 213.046875 218.726562 C 219.605469 221.078125 211.953125 211.566406 210.585938 215.996094 C 210.695312 216.214844 210.367188 215.941406 210.585938 215.996094 M 188.441406 203.644531 C 192.050781 206.265625 194.621094 202.660156 190.082031 200.3125 C 187.074219 198.726562 186.144531 201.949219 188.441406 203.644531 Z M 168.816406 199.492188 C 166.574219 196.484375 162.089844 202.222656 166.464844 202.550781 C 167.230469 202.605469 167.996094 202.496094 168.597656 202.003906 C 169.253906 201.347656 169.363281 200.203125 168.816406 199.492188 Z M 152.085938 205.121094 C 153.726562 204.082031 149.515625 202.167969 148.367188 203.097656 C 147.109375 204.191406 148.257812 206.160156 149.789062 206.050781 C 150.664062 206.050781 151.375 205.558594 152.085938 205.121094 Z M 157.28125 187.632812 C 157.988281 186.539062 155.3125 184.355469 154.4375 186.046875 C 153.78125 187.414062 155.148438 188.070312 156.242188 188.070312 C 156.625 188.070312 157.0625 187.960938 157.28125 187.632812 Z M 131.964844 265.777344 C 132.675781 264.683594 129.996094 262.5 129.125 264.191406 C 128.46875 265.558594 129.835938 266.214844 130.925781 266.214844 C 131.308594 266.160156 131.746094 266.105469 131.964844 265.777344 Z M 147.109375 179.875 C 146.453125 179.546875 145.632812 180.257812 145.632812 181.019531 C 145.742188 184.136719 150.28125 181.402344 147.546875 180.148438 C 146.234375 179.546875 145.085938 181.238281 146.398438 182.113281 M 125.898438 204.410156 C 127.265625 201.402344 118.570312 198.507812 120.59375 203.097656 C 120.921875 203.808594 121.523438 204.355469 122.179688 204.738281 C 122.78125 205.121094 123.4375 205.394531 124.148438 205.394531 C 124.859375 205.449219 125.570312 205.066406 125.898438 204.410156 Z M 140.496094 257.253906 C 141.863281 254.246094 133.167969 251.351562 135.191406 255.941406 C 135.519531 256.652344 136.121094 257.199219 136.777344 257.582031 C 137.378906 257.964844 138.035156 258.234375 138.746094 258.234375 C 139.457031 258.289062 140.222656 257.910156 140.496094 257.253906 Z M 118.1875 185.121094 C 121.960938 183.207031 116.109375 181.785156 114.472656 183.644531 C 113.871094 184.355469 114.582031 185.554688 115.511719 185.773438 C 116.4375 185.992188 117.367188 185.554688 118.1875 185.121094 Z M 122.507812 175.011719 C 124.09375 176.046875 124.914062 173.042969 123.164062 173.097656 C 122.234375 173.152344 121.632812 174.410156 122.507812 175.011719 Z M 208.125 183.917969 C 209.710938 184.957031 210.53125 181.949219 208.78125 182.003906 C 207.796875 182.058594 207.25 183.371094 208.125 183.917969 Z M 147.546875 251.023438 C 149.132812 252.0625 149.953125 249.054688 148.203125 249.109375 C 147.21875 249.164062 146.617188 250.421875 147.546875 251.023438 Z M 123.109375 148.726562 C 124.585938 147.6875 126.664062 145.171875 123.765625 144.1875 C 121.6875 143.480469 120.8125 145.664062 120.375 147.25 C 120.210938 147.960938 120.210938 148.835938 120.8125 149.21875 C 121.46875 149.707031 122.398438 149.21875 123.109375 148.726562 Z M 129.5625 157.6875 C 127.15625 156.484375 126.226562 160.910156 128.304688 161.347656 C 129.890625 161.621094 131.089844 158.453125 129.5625 157.6875 Z M 118.679688 163.261719 C 119.828125 161.894531 111.847656 157.90625 112.066406 161.183594 C 112.175781 163.152344 116.4375 163.644531 117.804688 163.589844 C 118.078125 163.535156 118.460938 163.480469 118.679688 163.261719 Z M 104.027344 169.109375 C 103.207031 169.382812 102.550781 170.199219 102.550781 171.074219 C 102.550781 172.988281 105.996094 173.808594 107.253906 172.660156 C 109.441406 170.691406 106.105469 168.34375 104.027344 169.109375 Z M 92.382812 165.9375 C 90.523438 165.664062 90.25 168.398438 91.835938 168.726562 C 93.585938 169.164062 94.296875 166.265625 92.382812 165.9375 Z M 78.167969 168.015625 C 81.832031 170.472656 83.800781 165.117188 80.246094 163.152344 C 76.035156 160.800781 74.996094 165.882812 78.167969 168.015625 Z M 103.152344 193.371094 C 104.300781 192.277344 102.660156 190.421875 101.460938 190.203125 C 98.015625 189.601562 100.640625 195.722656 103.152344 193.371094 Z M 133.605469 191.128906 C 132.402344 191.074219 131.964844 192.332031 132.675781 193.097656 C 134.371094 195.011719 136.066406 191.238281 133.605469 191.128906 Z M 90.742188 149.433594 C 91.398438 146.757812 89.15625 143.425781 87.246094 146.703125 C 86.152344 148.507812 86.425781 151.894531 89.265625 151.292969 C 90.085938 151.128906 90.578125 150.253906 90.742188 149.433594 Z M 74.398438 139.652344 C 74.179688 138.289062 72.921875 137.46875 71.554688 137.46875 C 69.859375 137.46875 70.734375 139.105469 71.9375 140.144531 C 73.140625 141.292969 74.722656 141.839844 74.398438 139.652344 Z M 81.503906 132.550781 C 82.433594 131.785156 82.707031 130.527344 82.761719 129.324219 C 82.925781 125.71875 79.917969 126.539062 78.988281 129.214844 C 78.332031 131.128906 78.878906 134.679688 81.503906 132.550781 Z M 73.851562 115.828125 C 73.632812 117.90625 76.910156 117.304688 76.308594 115.609375 C 75.925781 114.460938 74.015625 114.570312 73.851562 115.828125 Z M 86.753906 130.253906 C 86.535156 132.332031 89.8125 131.730469 89.210938 130.035156 C 88.882812 128.886719 86.917969 128.996094 86.753906 130.253906 Z M 77.839844 99.925781 C 78.222656 99.597656 78.386719 99.050781 78.496094 98.558594 C 78.660156 97.957031 78.824219 97.359375 79.042969 96.757812 C 79.207031 96.265625 79.371094 95.71875 79.261719 95.171875 C 79.042969 93.640625 78.550781 93.640625 77.457031 94.351562 C 75.871094 95.5 75.871094 101.730469 77.839844 99.925781 Z M 81.230469 74.078125 C 81.722656 73.695312 81.996094 73.09375 82.214844 72.546875 C 82.488281 71.835938 82.652344 71.074219 82.433594 70.363281 C 80.300781 63.695312 76.582031 77.902344 81.230469 74.078125 Z M 73.523438 66.589844 C 74.722656 67.136719 76.308594 66.375 76.582031 65.117188 C 76.855469 63.859375 75.816406 62.4375 74.503906 62.382812 C 71.773438 62.21875 71.171875 65.445312 73.523438 66.589844 Z M 65.921875 54.351562 C 65.921875 56.480469 68.382812 56.699219 67.890625 54.570312 C 67.507812 53.257812 65.921875 52.492188 65.921875 54.351562 Z M 88.773438 54.953125 C 89.101562 54.679688 89.484375 54.242188 89.265625 53.859375 C 89.15625 53.695312 89.046875 53.640625 88.882812 53.585938 C 86.699219 52.601562 83.855469 54.132812 83.253906 56.425781 C 85.167969 56.589844 87.191406 56.101562 88.773438 54.953125 Z M 98.125 47.957031 C 95.445312 44.789062 92.21875 51.015625 96.757812 50.910156 C 98.726562 50.855469 99.492188 49.542969 98.125 47.957031 Z M 102.605469 39.542969 C 105.121094 40.199219 102.988281 35.988281 102.007812 38.339844 C 101.84375 38.832031 101.953125 39.378906 102.605469 39.542969 Z M 75.105469 87.085938 C 77.949219 82.601562 70.242188 83.75 73.90625 87.195312 C 74.125 87.410156 74.398438 87.574219 74.667969 87.464844 C 74.886719 87.410156 74.996094 87.246094 75.105469 87.085938 Z M 81.339844 152.003906 C 81.722656 150.691406 79.753906 148.507812 78.988281 150.253906 C 78.441406 151.566406 80.082031 152.441406 81.175781 152.222656 " fill-opacity="1" fill-rule="nonzero"/></svg>